<?xml version="1.0" encoding="UTF-8"?>
<!DOCTYPE svg PUBLIC "-//W3C//DTD SVG 1.1//EN" "http://www.w3.org/Graphics/SVG/1.1/DTD/svg11.dtd">
<!-- Creator: CorelDRAW X7 -->
<svg xmlns="http://www.w3.org/2000/svg" xml:space="preserve" width="50px" height="58px" version="1.1" style="shape-rendering:geometricPrecision; text-rendering:geometricPrecision; image-rendering:optimizeQuality; fill-rule:evenodd; clip-rule:evenodd"
viewBox="0 0 23 27"
 xmlns:xlink="http://www.w3.org/1999/xlink">
 <defs>
  <style type="text/css">
   <![CDATA[
    .fil0 {fill:white}
   ]]>
  </style>
 </defs>
 <g id="Capa_x0020_1">
  <metadata id="CorelCorpID_0Corel-Layer"/>
  <path class="fil0" d="M2 6c0,0 0,0 0,0l0 1c1,1 3,3 6,4 0,0 0,0 1,0l-9 0 0 4 9 0c-1,1 -2,1 -3,2 -1,0 -2,1 -3,2 -2,1 -2,3 -3,5 0,1 0,2 0,3l4 0c1,-2 1,-2 1,-3 0,-1 1,-2 2,-3 1,-1 2,-1 3,-1l0 6 3 0c1,0 0,-5 0,-6 1,0 3,1 4,2 1,1 1,2 2,5l4 0c0,-3 -1,-5 -2,-7 0,0 0,-1 -1,-1 -1,-2 -3,-3 -6,-4l9 0 0 -4 -9 0c0,0 0,0 0,0 0,0 0,0 0,0 1,0 3,-1 3,-1 2,-1 4,-3 5,-5 0,-1 0,-1 1,-2 0,-1 0,-2 0,-3l-4 0c-1,3 -2,4 -4,6 0,0 -1,1 -2,1l0 -7 -3 0 0 7c-2,0 -3,-2 -4,-3 -1,-1 -1,-2 -2,-4l-4 0c0,1 0,4 1,5 0,0 1,1 1,1z"/>
 </g>
</svg>
